{"title":"Wanessa Ft. Soulja Boy - Turn It Up [Music Video] 720p [Sbyky]","uid":9922211,"size":59350025,"categoryP":"video","categoryS":"music_videos","magnet":"?xt=urn:btih:67b130370fb978b408e7bae77e6e24274b8f2d79&amp;dn=Wanessa+Ft.+Soulja+Boy+-+Turn+It+Up+%5BMusic+Video%5D+720p+%5BSbyky%5D&amp;tr=udp%3A%2F%2Ftracker.openbittorrent.com%3A80&amp;tr=udp%3A%2F%2Fopen.demonii.com%3A1337&amp;tr=udp%3A%2F%2Ftracker.coppersurfer.tk%3A6969&amp;tr=udp%3A%2F%2Fexodus.desync.com%3A6969","seeders":1,"leechers":0,"uploader":"Sbyky","files":1,"time":1397011780,"description":"\n\nGeneral\nComplete name                            : Wanessa Ft. Soulja Boy - Turn It Up [Music Video] 720p [Sbyky].MP4\nFormat                                   : MPEG-4\nFormat profile                           : Base Media\nCodec ID                                 : isom\nFile size                                : 56.6 MiB\nDuration                                 : 3mn 43s\nOverall bit rate mode                    : Variable\nOverall bit rate                         : 2 125 Kbps\nEncoded date                             : UTC 2014-03-21 01:59:57\nTagged date                              : UTC 2014-03-21 01:59:57\n\nVideo\nID                                       : 1\nFormat                                   : AVC\nFormat/Info                              : Advanced Video Codec\nFormat profile                           : &lt;a class=&quot;__cf_email__&quot; href=&quot;/cdn-cgi/l/email-protection&quot; data-cfemail=&quot;175a767e79575b243926&quot;&gt;[email&amp;#160;protected]&lt;/a&gt;&lt;script cf-hash='f9e31' type=&quot;text/javascript&quot;&gt;\n/* &lt;![CDATA[ */!function(){try{var t=&quot;currentScript&quot;in document?document.currentScript:function(){for(var t=document.getElementsByTagName(&quot;script&quot;),e=t.length;e--;)if(t[e].getAttribute(&quot;cf-hash&quot;))return t[e]}();if(t&amp;&amp;t.previousSibling){var e,r,n,i,c=t.previousSibling,a=c.getAttribute(&quot;data-cfemail&quot;);if(a){for(e=&quot;&quot;,r=parseInt(a.substr(0,2),16),n=2;a.length-n;n+=2)i=parseInt(a.substr(n,2),16)^r,e+=String.fromCharCode(i);e=document.createTextNode(e),c.parentNode.replaceChild(e,c)}}}catch(u){}}();/* ]]&gt; */&lt;/script&gt;\nFormat settings, CABAC                   : Yes\nFormat settings, ReFrames                : 3 frames\nCodec ID                                 : avc1\nCodec ID/Info                            : Advanced Video Coding\nDuration                                 : 3mn 43s\nDuration_LastFrame                       : -1ms\nBit rate                                 : 1 997 Kbps\nWidth                                    : 1 280 pixels\nHeight                                   : 720 pixels\nDisplay aspect ratio                     : 16:9\nFrame rate mode                          : Constant\nFrame rate                               : 23.976 fps\nColor space                              : YUV\nChroma subsampling                       : 4:2:0\nBit depth                                : 8 bits\nScan type                                : Progressive\nBits/(Pixel*Frame)                       : 0.090\nStream size                              : 53.2 MiB (94%)\nEncoded date                             : UTC 2014-03-21 01:59:57\nTagged date                              : UTC 2014-03-21 01:59:57\n\nAudio\nID                                       : 2\nFormat                                   : AAC\nFormat/Info                              : Advanced Audio Codec\nFormat profile                           : LC\nCodec ID                                 : 40\nDuration                                 : 3mn 43s\nBit rate mode                            : Variable\nBit rate                                 : 126 Kbps\nChannel(s)                               : 2 channels\nChannel positions                        : Front: L R\nSampling rate                            : 44.1 KHz\nCompression mode                         : Lossy\nStream size                              : 3.34 MiB (6%)\nEncoded date                             : UTC 2014-03-21 01:59:09\nTagged date                              : UTC 2014-03-21 01:59:09\n\nShared By Sbyky\n","torrent":{"xt":"urn:btih:67b130370fb978b408e7bae77e6e24274b8f2d79","amp;dn":"Wanessa+Ft.+Soulja+Boy+-+Turn+It+Up+%5BMusic+Video%5D+720p+%5BSbyky%5D","amp;tr":["udp%3A%2F%2Ftracker.openbittorrent.com%3A80","udp%3A%2F%2Fopen.demonii.com%3A1337","udp%3A%2F%2Ftracker.coppersurfer.tk%3A6969","udp%3A%2F%2Fexodus.desync.com%3A6969"],"infoHash":"67b130370fb978b408e7bae77e6e24274b8f2d79","infoHashBuffer":{"type":"Buffer","data":[103,177,48,55,15,185,120,180,8,231,186,231,126,110,36,39,75,143,45,121]},"announce":[],"urlList":[]}}